<svg id="Layer_1" data-name="Layer 1" xmlns="http://www.w3.org/2000/svg" viewBox="0 0 1887.92 1783.73"><defs><style>.cls-1{fill:#63d297;}.cls-2{fill:#025949;}</style></defs><path class="cls-1" d="M608.12,1730.33c385.84,139,865.42,2.58,1112.55-360.45,269.14-395.35,202.66-971.46-122-1220.41C1296.35-82.3,860.28,7.46,636.5,75.68,450.14,132.49,254.06,235.47,117.11,436.13-110.73,770,60.6,1185.28,80.22,1230.81,98.72,1273.77,245.4,1599.71,608.12,1730.33Z"/><g id="LWPOLYLINE"><path class="cls-2" d="M833.46,1619h-.17c-227.4,0-411.75-184.34-411.75-411.74V877.57h.17c227.4,0,411.75,184.35,411.75,411.75Z"/></g><g id="LWPOLYLINE-2" data-name="LWPOLYLINE"><path class="cls-2" d="M970.54,246h439.6v.22c0,303.2-245.8,549-549,549H421.54V795C421.54,491.76,667.34,246,970.54,246Z"/></g><g id="LWPOLYLINE-3" data-name="LWPOLYLINE"><path class="cls-2" d="M1014.49,877.57H796.67v.08c0,152.7,123.78,276.48,276.47,276.48H1291v-.08C1291,1001.35,1167.18,877.57,1014.49,877.57Z"/></g></svg>